<?xml version="1.0" encoding="UTF-8"?>
<svg width="448px" height="303px" viewBox="0 0 448 303" version="1.1" xmlns="http://www.w3.org/2000/svg" xmlns:xlink="http://www.w3.org/1999/xlink">
    <!-- Generator: Sketch 60 (88103) - https://sketch.com -->
    <title>Artboard</title>
    <desc>Created with Sketch.</desc>
    <g id="Artboard" stroke="none" stroke-width="1" fill="none" fill-rule="evenodd">
        <circle id="Oval" stroke="#979797" cx="46" cy="141" r="30"></circle>
        <circle id="Oval" stroke="#979797" cx="132" cy="248" r="30"></circle>
        <circle id="Oval" stroke="#979797" cx="215" cy="48" r="30"></circle>
        <text id="A" font-family="RobotoMono-Regular, Roboto Mono" font-size="24" font-weight="normal" fill="#000000">
            <tspan x="30" y="148">A</tspan>
        </text>
        <text id="B,2" font-family="RobotoMono-Regular, Roboto Mono" font-size="24" font-weight="normal" fill="#000000">
            <tspan x="195" y="57">B,2 </tspan>
        </text>
        <text id="C,5" font-family="RobotoMono-Regular, Roboto Mono" font-size="24" font-weight="normal" fill="#000000">
            <tspan x="113" y="257">C,5</tspan>
        </text>
        <circle id="Oval" stroke="#979797" cx="365" cy="92" r="30"></circle>
        <circle id="Oval" stroke="#979797" cx="331" cy="257" r="30"></circle>
        <text id="D,5" font-family="RobotoMono-Regular, Roboto Mono" font-size="24" font-weight="normal" fill="#000000">
            <tspan x="344" y="100">D,5</tspan>
        </text>
        <path id="Line-5" d="M196.133961,64.7123938 L190.123624,72.7824527 L188.322,69.21 L76.9126062,125.383961 L76.4661455,125.609067 L76.015933,124.716146 L76.4623938,124.491039 L187.872,68.317 L186.071711,64.7461597 L196.133961,64.7123938 Z" fill="#979797" fill-rule="nonzero"></path>
        <path id="Line-5" d="M186.207674,48.3240772 L186.675923,49.2076736 L186.234125,49.4417982 L67.432,112.399 L69.3051912,115.933565 L59.2457018,116.171625 L65.0909479,107.981197 L66.964,111.516 L185.765875,48.5582018 L186.207674,48.3240772 Z" fill="#979797" fill-rule="nonzero"></path>
        <path id="Line-6" d="M59.9007319,168.059146 L60.1707932,168.479939 L98.579,228.326 L101.946097,226.165964 L103.020061,236.170793 L94.3718194,231.027068 L97.738,228.866 L59.3292068,169.020061 L59.0591455,168.599268 L59.9007319,168.059146 Z" fill="#979797" fill-rule="nonzero"></path>
        <path id="Line-7" d="M245.168257,56.8755429 L245.646357,57.0219 L335.518,84.533 L336.689515,80.7090289 L343.9781,87.6463571 L334.055086,89.3148285 L335.226,85.489 L245.353643,57.9781 L244.875543,57.8317428 L245.168257,56.8755429 Z" fill="#979797" fill-rule="nonzero"></path>
        <path id="Line-7" d="M326.869177,90.9787296 L336.493015,93.916714 L328.368325,99.8529934 L327.702,95.909 L78.583286,137.993015 L78.0902713,138.076301 L77.9236994,137.090271 L78.416714,137.006985 L327.535,94.923 L326.869177,90.9787296 Z" fill="#979797" fill-rule="nonzero"></path>
        <path id="Line-7" d="M343.730867,103.11744 L343.88256,104.105867 L343.388346,104.181714 L84.227,143.954 L84.834253,147.908536 L75.2557862,144.825846 L83.4690176,139.012686 L84.076,142.966 L343.236654,103.193286 L343.730867,103.11744 Z" fill="#979797" fill-rule="nonzero"></path>
        <path id="Line-8" d="M70.701838,148.598628 L79.6811013,153.139865 L76.469,155.525 L123.401372,218.701838 L123.699534,219.10321 L122.89679,219.699534 L122.598628,219.298162 L75.667,156.121 L72.4564067,158.506781 L70.701838,148.598628 Z" fill="#979797" fill-rule="nonzero"></path>
        <path id="Line-8" d="M293.291033,242.173334 L302.24998,246.754521 L293.209662,251.172966 L293.245,247.172 L163.495479,245.99998 L162.9955,245.995459 L163.004541,244.9955 L163.504521,245.00002 L293.255,246.172 L293.291033,242.173334 Z" fill="#979797" fill-rule="nonzero"></path>
        <path id="Line-8" d="M358.941372,115.379425 L362.206858,124.897124 L358.241,124.366 L344.370575,227.941372 L344.304204,228.436947 L343.313053,228.304204 L343.379425,227.808628 L357.251,124.233 L353.286504,123.702434 L358.941372,115.379425 Z" fill="#979797" fill-rule="nonzero"></path>
        <path id="Line-8" d="M351.417948,115.725556 L346.364882,124.42708 L344.168,121.083 L164.149444,239.292948 L163.731496,239.567392 L163.182608,238.731496 L163.600556,238.457052 L343.619,120.247 L341.424889,116.904018 L351.417948,115.725556 Z" fill="#979797" fill-rule="nonzero"></path>
        <path id="Line-8" d="M344.086585,106.871288 L344.628712,107.711585 L344.208563,107.982648 L165.351,223.374 L167.519592,226.735757 L157.517352,227.833563 L162.640451,219.173087 L164.809,222.534 L343.666437,107.142352 L344.086585,106.871288 Z" fill="#979797" fill-rule="nonzero"></path>
        <path id="Line-8" d="M373.568869,122.43953 L374.56047,122.568869 L374.4958,123.06467 L360.594,229.636 L364.561585,230.153423 L358.93533,238.4958 L355.637181,228.98937 L359.604,229.506 L373.5042,122.93533 L373.568869,122.43953 Z" fill="#979797" fill-rule="nonzero"></path>
        <path id="Line-8" d="M255.753826,39.8795614 L254.916,43.791 L350.948445,64.3548338 L351.437361,64.4595283 L351.227972,65.4373607 L350.739055,65.3326662 L254.706,44.769 L253.869325,48.6800531 L246.011084,42.3953055 L255.753826,39.8795614 Z" fill="#979797" fill-rule="nonzero"></path>
        <text id="2" font-family="RobotoMono-Regular, Roboto Mono" font-size="12" font-weight="normal" fill="#000000">
            <tspan x="86" y="95">2</tspan>
        </text>
        <text id="2" font-family="RobotoMono-Regular, Roboto Mono" font-size="12" font-weight="normal" fill="#000000">
            <tspan x="122" y="99">2</tspan>
        </text>
        <text id="4" font-family="RobotoMono-Regular, Roboto Mono" font-size="12" font-weight="normal" fill="#000000">
            <tspan x="207" y="242">4</tspan>
        </text>
        <text id="6" font-family="RobotoMono-Regular, Roboto Mono" font-size="12" font-weight="normal" fill="#000000">
            <tspan x="291" y="67">6</tspan>
        </text>
        <text id="6" font-family="RobotoMono-Regular, Roboto Mono" font-size="12" font-weight="normal" fill="#000000">
            <tspan x="284" y="45">6</tspan>
        </text>
        <text id="4" font-family="RobotoMono-Regular, Roboto Mono" font-size="12" font-weight="normal" fill="#000000">
            <tspan x="216" y="277">4</tspan>
        </text>
        <text id="5" font-family="RobotoMono-Regular, Roboto Mono" font-size="12" font-weight="normal" fill="#000000">
            <tspan x="115" y="198">5</tspan>
        </text>
        <text id="5" font-family="RobotoMono-Regular, Roboto Mono" font-size="12" font-weight="normal" fill="#000000">
            <tspan x="188" y="107">5</tspan>
        </text>
        <text id="5" font-family="RobotoMono-Regular, Roboto Mono" font-size="12" font-weight="normal" fill="#000000">
            <tspan x="215" y="135">5</tspan>
        </text>
        <text id="5" font-family="RobotoMono-Regular, Roboto Mono" font-size="12" font-weight="normal" fill="#000000">
            <tspan x="76" y="185">5</tspan>
        </text>
        <text id=",0" font-family="RobotoMono-Regular, Roboto Mono" font-size="24" font-weight="normal" fill="#000000">
            <tspan x="41" y="148">,0</tspan>
        </text>
        <path id="Line-8" d="M166.51172,261.522208 L166.501,265.521 L301.626305,265.875002 L302.126304,265.876307 L302.123693,266.876304 L301.623695,266.874998 L166.498,266.521 L166.488222,270.522178 L157.500002,265.998695 L166.51172,261.522208 Z" fill="#979797" fill-rule="nonzero"></path>
        <text id="E,6" font-family="RobotoMono-Regular, Roboto Mono" font-size="24" font-weight="normal" fill="#000000">
            <tspan x="308" y="266">E,6</tspan>
        </text>
        <text id="1" font-family="RobotoMono-Regular, Roboto Mono" font-size="12" font-weight="normal" fill="#000000">
            <tspan x="245" y="203">1</tspan>
        </text>
        <text id="1" font-family="RobotoMono-Regular, Roboto Mono" font-size="12" font-weight="normal" fill="#000000">
            <tspan x="330" y="185">1</tspan>
        </text>
        <text id="1" font-family="RobotoMono-Regular, Roboto Mono" font-size="12" font-weight="normal" fill="#000000">
            <tspan x="375" y="187">1</tspan>
        </text>
        <text id="1" font-family="RobotoMono-Regular, Roboto Mono" font-size="12" font-weight="normal" fill="#000000">
            <tspan x="216" y="177">1</tspan>
        </text>
    </g>
</svg>